<svg xmlns="http://www.w3.org/2000/svg" width="1200" height="630" viewBox="0 0 1200 630">
  <defs>
    <linearGradient id="bg" x1="0" y1="0" x2="1" y2="1">
      <stop offset="0" stop-color="#0C2432"/>
      <stop offset="0.58" stop-color="#071724"/>
      <stop offset="1" stop-color="#061321"/>
    </linearGradient>
    <radialGradient id="glow" cx="53%" cy="14%" r="62%">
      <stop offset="0" stop-color="#E8C173" stop-opacity="0.22"/>
      <stop offset="1" stop-color="#E8C173" stop-opacity="0"/>
    </radialGradient>
    <linearGradient id="gold" x1="0" y1="0" x2="1" y2="0">
      <stop offset="0" stop-color="#F7E7B0"/>
      <stop offset="0.48" stop-color="#E8C173"/>
      <stop offset="1" stop-color="#DAA442"/>
    </linearGradient>
  </defs>
  <rect width="1200" height="630" fill="url(#bg)"/>
  <rect width="1200" height="630" fill="url(#glow)"/>
  <rect x="44" y="44" width="1112" height="542" rx="34" fill="none" stroke="#F4EFE6" stroke-opacity="0.11"/>

  <g transform="translate(100,72)">
    <g transform="scale(1.5)" stroke-linecap="round" stroke-linejoin="round" fill="none">
      <path d="M5 31 H31" stroke="#DAA442" stroke-width="2.6"/>
      <path d="M23.8 30 C21 23, 14.5 13, 8.2 6.4" stroke="#DAA442" stroke-width="2.1"/>
      <path d="M12.2 30 C15 23, 21.5 13, 27.8 6.4" stroke="#F7F3EA" stroke-width="2.3"/>
      <circle cx="18" cy="5.6" r="1.9" fill="#DAA442" stroke="none"/>
    </g>
    <text x="74" y="42" font-family="PP Mondwest, Georgia, serif" font-size="36" font-weight="400"><tspan fill="url(#gold)">Xerxes</tspan> <tspan fill="#F7F3EA">Duane</tspan></text>
  </g>

  <rect x="100" y="176" width="430" height="28" rx="14" fill="#FFFFFF" fill-opacity="0.055" stroke="#F4EFE6" stroke-opacity="0.16"/>
  <text x="122" y="196" font-family="PP NeueBit, Space Mono, monospace" font-size="20" letter-spacing="5" fill="#E8C173">SYSTEMS STUDIO - DUBAI</text>
  <text x="100" y="300" font-family="Inter, Helvetica, Arial, sans-serif" font-size="72" font-weight="700" fill="#F7F3EA">Build the next system,</text>
  <text x="100" y="390" font-family="PP Mondwest, Georgia, serif" font-size="84" font-weight="400" fill="url(#gold)">the clear way.</text>
  <text x="100" y="470" font-family="Inter, Helvetica, Arial, sans-serif" font-size="29" fill="#D8CFC0">Websites, CRM, Odoo, automation, ads and AI, connected.</text>
  <text x="100" y="560" font-family="PP NeueBit, Space Mono, monospace" font-size="26" letter-spacing="6" fill="#DAA442">WEBSITES - CRM - ODOO - AUTOMATION - AI</text>
</svg>
